<svg xmlns="http://www.w3.org/2000/svg" viewBox="0 0 64 64" role="img" aria-label="Amazon">
  <rect width="64" height="64" rx="14" fill="#fff7df"/>
  <path fill="#111111" d="M36.9 38.7c-2.2 1.6-5.4 2.5-8.2 2.5-4 0-7.6-1.5-10.3-4-.2-.2 0-.5.2-.4 3 1.8 6.7 2.8 10.5 2.8 2.5 0 5.2-.5 7.7-1.6.4-.2.7.3.1.7Z"/>
  <path fill="#ff9900" d="M40 37.2c-.4-.5-2.7-.3-3.7-.2-.3 0-.4-.2-.1-.4 1.5-1.1 4-.8 4.3-.4.3.4-.1 3.1-1.5 4.3-.2.2-.5.1-.4-.2.4-1 .9-2.6 1.4-3.1Z"/>
  <path fill="#111111" d="M36.2 33.2c0 .8.1 1.4.3 1.9.1.2.1.5-.1.7l-1.7 1.2c-.2.2-.5.1-.7-.1-.9-1.1-1.1-1.7-1.6-2.8-1.5 1.6-2.6 2.1-4.6 2.1-2.4 0-4.2-1.5-4.2-4.4 0-2.3 1.2-3.8 3-4.6 1.5-.7 3.6-.8 5.3-1v-.4c0-.8.1-1.7-.4-2.3-.4-.6-1.1-.8-1.8-.8-1.2 0-2.3.6-2.5 1.9-.1.3-.3.6-.6.6l-2.7-.3c-.2 0-.5-.2-.4-.6.6-3.2 3.5-4.2 6.1-4.2 1.3 0 3.1.4 4.1 1.4 1.3 1.2 1.2 2.9 1.2 4.7v7Zm-4.3-4.8c-2 .2-4.1.4-4.1 2.8 0 1.2.6 2 1.7 2 .8 0 1.6-.5 2-1.3.5-1 .4-1.9.4-3.1v-.4Z"/>
</svg>
